{
	"asset": {
		"generator": "VISUALIZEGLTF",
		"version" : "2.0"
	},
	"extensionsUsed": [ "KHR_lights_punctual" ],
	"scenes": [
		{
			"name": "Default",
			"nodes": [
				0]
		}
	],
	"nodes": [
		{
			"children": [
				1, 6, 7, 8, 9, 10, 11
			]
			,"name": "Root"		}
,
		{
			"children": [
				2
			]
			,"matrix": [
				1,					0,					0,					0,
				0,					1,					0,					0,
				0,					0,					1,					0,
				0,					0.2603,					0,					1
			]
			,"name": "Robot_6_VISUALIZE (V2.0_0.7m)"		}
,
		{
			"children": [
				3, 4, 5
			]
			,"name": "V2.0_0.7m"		}
,
		{
			"mesh": 0
			,"name": "color"		}
,
		{
			"mesh": 1
			,"name": "matte steel"		}
,
		{
			"mesh": 2
			,"name": "color-2"		}
,
		{
			"matrix": [
				-0.4589181,					0.3136705,					0.831267,					0,
				0.4559625,					0.8861522,					-0.0826574,					0,
				-0.7625564,					0.3410937,					-0.5496933,					0,
				-2.095296,					1.27645,					-1.955327,					1
			]
			,"camera": 0
			,"name": "SOLIDWORKS Viewport"		}
,
		{
			"matrix": [
				0.7071068,					0,					-0.7071068,					0,
				-0.1622216,					0.9733286,					-0.1622216,					0,
				0.6882472,					0.2294159,					0.6882472,					0,
				4.445094,					1.981699,					4.445094,					1
			]
			,"camera": 1
			,"name": "Default Camera"		}
,
		{
			"matrix": [
				1,					0,					0,					0,
				0,					0.06279051,					-0.9980267,					0,
				0,					0.9980267,					0.06279051,					0,
				0,					9.980268,					0.6279052,					1
			]
			,"extensions" : {
				"KHR_lights_punctual" : {
					"light" : 0
				}
			}
			,"name": "Directional17"		}
,
		{
			"matrix": [
				0.9911693,					0,					-0.1326023,					0,
				-0.06378024,					0.8767266,					-0.4767414,					0,
				0.116256,					0.4809889,					0.8689846,					0,
				1.162561,					4.809888,					8.689847,					1
			]
			,"extensions" : {
				"KHR_lights_punctual" : {
					"light" : 1
				}
			}
			,"name": "Directional18"		}
,
		{
			"name": "Soft Spotlight"		}
,
		{
			"name": "Studio Soft Grey 12"		}
	],
	"cameras": [
		{
			"type": "perspective",
			"perspective" : {
				"aspectRatio": 1.294118,
				"yfov" : 0.3215369,
				"zfar" : 100,
				"znear" : 0.01
			}
		}
,
		{
			"type": "perspective",
			"perspective" : {
				"aspectRatio": 1.777778,
				"yfov" : 0.2617994,
				"zfar" : 100,
				"znear" : 0.01
			}
		}
	],
	"extensions": {
		"KHR_lights_punctual" : {
			"lights": [
		{
			"name": "Directional17[1]",
			"color": [
					0.5773503, 0.5773503, 0.5773503
				],
			"intensity": 0.5773503,
			"type": "directional"
		}
,
		{
			"name": "Directional18[1]",
			"color": [
					0.5773503, 0.5773503, 0.5773503
				],
			"intensity": 0.5773503,
			"type": "directional"
		}

			]
		}
	},
	"meshes" : [
		{
			"primitives" : [
				{
					"attributes" : {
					"POSITION" : 1
					,"NORMAL" : 2
					,"TEXCOORD_0" : 3
					},
					"indices" : 0,
					"mode": 4,
					"material" : 0
				}
			]
		},
		{
			"primitives" : [
				{
					"attributes" : {
					"POSITION" : 5
					,"NORMAL" : 6
					,"TEXCOORD_0" : 7
					},
					"indices" : 4,
					"mode": 4,
					"material" : 1
				}
			]
		},
		{
			"primitives" : [
				{
					"attributes" : {
					"POSITION" : 9
					,"NORMAL" : 10
					,"TEXCOORD_0" : 11
					},
					"indices" : 8,
					"mode": 4,
					"material" : 2
				}
			]
		}
	],
	"accessors" : [
			{
				"bufferView": 3,
				"byteOffset" : 0,
				"componentType" : 5125,
				"count" : 68712,
				"type" : "SCALAR"
			},
			{
				"bufferView": 0,
				"byteOffset" : 0,
				"componentType" : 5126,
				"count" : 29062,
				"type" : "VEC3"
								,"min": [-0.389374405,-0.25999999,-0.659989178]
								,"max": [0.389374405,0.100000001,0.0999891981]
			},
			{
				"bufferView": 1,
				"byteOffset" : 0,
				"componentType" : 5126,
				"count" : 29062,
				"type" : "VEC3"
			},
			{
				"bufferView": 2,
				"byteOffset" : 0,
				"componentType" : 5126,
				"count" : 29062,
				"type" : "VEC2"
			},
			{
				"bufferView": 7,
				"byteOffset" : 0,
				"componentType" : 5125,
				"count" : 876,
				"type" : "SCALAR"
			},
			{
				"bufferView": 4,
				"byteOffset" : 0,
				"componentType" : 5126,
				"count" : 450,
				"type" : "VEC3"
								,"min": [-0.224999994,0.103737205,-0.559845328]
								,"max": [0.224999994,0.25,-0.000154700538]
			},
			{
				"bufferView": 5,
				"byteOffset" : 0,
				"componentType" : 5126,
				"count" : 450,
				"type" : "VEC3"
			},
			{
				"bufferView": 6,
				"byteOffset" : 0,
				"componentType" : 5126,
				"count" : 450,
				"type" : "VEC2"
			},
			{
				"bufferView": 11,
				"byteOffset" : 0,
				"componentType" : 5125,
				"count" : 72,
				"type" : "SCALAR"
			},
			{
				"bufferView": 8,
				"byteOffset" : 0,
				"componentType" : 5126,
				"count" : 48,
				"type" : "VEC3"
								,"min": [-0.0376399346,-0.230000004,-0.589804471]
								,"max": [0.121726036,-0.189999998,0.0298044477]
			},
			{
				"bufferView": 9,
				"byteOffset" : 0,
				"componentType" : 5126,
				"count" : 48,
				"type" : "VEC3"
			},
			{
				"bufferView": 10,
				"byteOffset" : 0,
				"componentType" : 5126,
				"count" : 48,
				"type" : "VEC2"
			}
	],
	"materials": [
			{
				"name": "color",
				"emissiveFactor": [
					0, 0, 0
				]
				,"pbrMetallicRoughness": {
					"baseColorFactor": [
						0.08777455, 0.505833, 0.09505331, 1
					]
					,"metallicFactor": 0.1201965
					,"roughnessFactor": 0.01336535
				}
				,"alphaMode": "OPAQUE"
				,"doubleSided": true
			},
			{
				"name": "matte steel",
				"emissiveFactor": [
					0, 0, 0
				]
				,"pbrMetallicRoughness": {
					"baseColorFactor": [
						0.3889103, 0.3488649, 0.3111805, 1
					]
					,"metallicFactor": 1
					,"roughnessFactor": 0.6996359
				}
				,"alphaMode": "OPAQUE"
				,"doubleSided": true
			},
			{
				"name": "color-2",
				"emissiveFactor": [
					0, 0, 0
				]
				,"pbrMetallicRoughness": {
					"baseColorFactor": [
						0.6064497, 0.6537905, 0.870804, 1
					]
					,"metallicFactor": 0.08936077
					,"roughnessFactor": 0.01336535
				}
				,"alphaMode": "OPAQUE"
				,"doubleSided": true
			}
	],
	"bufferViews" : [
			{
				"buffer": 0
				,"byteOffset" : 0
				,"byteLength" : 348744
				,"byteStride" : 12
				,"target" : 34962
			},
			{
				"buffer": 0
				,"byteOffset" : 348744
				,"byteLength" : 348744
				,"byteStride" : 12
				,"target" : 34962
			},
			{
				"buffer": 0
				,"byteOffset" : 697488
				,"byteLength" : 232496
				,"byteStride" : 8
				,"target" : 34962
			},
			{
				"buffer": 0
				,"byteOffset" : 929984
				,"byteLength" : 274848
				,"target" : 34963
			},
			{
				"buffer": 1
				,"byteOffset" : 0
				,"byteLength" : 5400
				,"byteStride" : 12
				,"target" : 34962
			},
			{
				"buffer": 1
				,"byteOffset" : 5400
				,"byteLength" : 5400
				,"byteStride" : 12
				,"target" : 34962
			},
			{
				"buffer": 1
				,"byteOffset" : 10800
				,"byteLength" : 3600
				,"byteStride" : 8
				,"target" : 34962
			},
			{
				"buffer": 1
				,"byteOffset" : 14400
				,"byteLength" : 3504
				,"target" : 34963
			},
			{
				"buffer": 2
				,"byteOffset" : 0
				,"byteLength" : 576
				,"byteStride" : 12
				,"target" : 34962
			},
			{
				"buffer": 2
				,"byteOffset" : 576
				,"byteLength" : 576
				,"byteStride" : 12
				,"target" : 34962
			},
			{
				"buffer": 2
				,"byteOffset" : 1152
				,"byteLength" : 384
				,"byteStride" : 8
				,"target" : 34962
			},
			{
				"buffer": 2
				,"byteOffset" : 1536
				,"byteLength" : 288
				,"target" : 34963
			}
	],
	"buffers" : [
			{
				"byteLength": 1204832
				,"uri" : "WCR_4_0001.bin"
			},
			{
				"byteLength": 17904
				,"uri" : "WCR_4_0002.bin"
			},
			{
				"byteLength": 1824
				,"uri" : "WCR_4_0003.bin"
			}
	]
}
